<?xml version="1.0" standalone="no"?>
<!DOCTYPE svg PUBLIC "-//W3C//DTD SVG 1.1//EN" "http://www.w3.org/Graphics/SVG/1.1/DTD/svg11.dtd" >
<svg xmlns="http://www.w3.org/2000/svg" xmlns:xlink="http://www.w3.org/1999/xlink" version="1.1">
<metadata>
Created by FontForge 20170731 at Tue Nov 24 07:15:56 2020
 By Aleksey,,,
Copyright (c) 2019 by Sarid Ezra. All rights reserved.
</metadata>
<defs>
<font id="LovericaDEMO" horiz-adv-x="991" >
  <font-face 
    font-family="Loverica DEMO"
    font-weight="400"
    font-stretch="normal"
    units-per-em="2048"
    panose-1="0 0 0 0 0 0 0 0 0 0"
    ascent="1536"
    descent="-512"
    x-height="1434"
    cap-height="1434"
    bbox="-31 -416 6414 1778"
    underline-thickness="102"
    underline-position="-358"
    unicode-range="U+000D-E06C"
  />
<missing-glyph horiz-adv-x="512" 
 />
    <glyph glyph-name=".notdef" horiz-adv-x="512" 
 />
    <glyph glyph-name="uni0000" horiz-adv-x="0" 
 />
    <glyph glyph-name="uni0000" horiz-adv-x="0" 
 />
    <glyph glyph-name="uni000D" unicode="&#xd;" horiz-adv-x="512" 
 />
    <glyph glyph-name="space" unicode=" " horiz-adv-x="512" 
 />
    <glyph glyph-name="exclam" unicode="!" horiz-adv-x="378" 
d="M121 1434h137l-57 -1211h-21zM190 125q44 0 62.5 -35t0 -70.5t-62.5 -35.5q-34 0 -53.5 22t-19.5 48.5t19.5 48.5t53.5 22z" />
    <glyph glyph-name="quotedbl" unicode="&#x22;" horiz-adv-x="380" 
d="M266 1075l-35 326q1 23 14 36t29 13q17 0 28.5 -13t10.5 -36l-37 -326h-10zM102 1075l-34 326q1 23 14 36t29 13q17 0 28.5 -13t10.5 -36l-37 -326h-11z" />
    <glyph glyph-name="numbersign" unicode="#" horiz-adv-x="946" 
d="M238 461h-189v10h191l100 504h-195v10h197l92 459h10l-92 -459h322l92 459h10l-92 -459h213v-10h-215l-100 -504h219v-10h-221l-93 -463h-10l92 463h-321l-92 -463h-11zM250 471h321l101 504h-322z" />
    <glyph glyph-name="dollar" unicode="$" horiz-adv-x="731" 
d="M51 170l6 8q41 -83 118 -128.5t177 -45.5q22 0 54 4v559q-21 22 -77.5 76.5t-83 82t-69 79.5t-63.5 91.5t-37.5 94t-16.5 109.5q0 69 27 122.5t72.5 85.5t101 48t115.5 16q21 0 31 -2v266h10v-266q165 -21 243 -180l-8 -8q-34 76 -94.5 122.5t-140.5 57.5v-645
q50 -48 80 -78t70 -79t62 -89.5t38 -94t16 -108.5q0 -113 -77 -182t-189 -88v-270h-10v270q-36 -4 -54 -4q-100 0 -178 46t-123 130zM375 1364q-102 0 -160.5 -62t-58.5 -161q0 -61 19 -116.5t61 -111t75 -91t95 -95.5v635q-10 2 -31 2zM588 225q0 90 -45 168t-127 164v-547
q77 16 124.5 70t47.5 145z" />
    <glyph glyph-name="percent" unicode="%" horiz-adv-x="774" 
d="M53 -125l645 1569h13l-645 -1569h-13zM256 1427q-41 0 -65 -69.5t-24.5 -152.5t23.5 -152.5t66 -69.5q41 0 64.5 69.5t23.5 152.5t-23.5 152.5t-64.5 69.5zM256 971q-51 0 -88 34.5t-54 86.5t-16.5 112.5t17 112.5t54 86.5t87.5 34.5q49 0 86 -34.5t53.5 -86.5t17 -112.5
t-16 -112.5t-53.5 -86.5t-87 -34.5zM557 446q-41 0 -65 -69.5t-24.5 -152.5t23.5 -152.5t66 -69.5q41 0 64.5 69.5t23.5 152.5t-23.5 152.5t-64.5 69.5zM557 -10q-44 0 -78 26t-52 67t-26 90.5t0.5 99.5t26 91t52 67t77.5 26t76.5 -26t51 -67t26 -90.5t0.5 -99.5t-25.5 -91
t-51.5 -67t-77 -26z" />
    <glyph glyph-name="ampersand" unicode="&#x26;" horiz-adv-x="985" 
d="M520 -20q-68 0 -133.5 15t-125.5 47.5t-106 78.5t-73 112.5t-27 145.5q0 45 10 86.5t23 72.5t40.5 64.5t47 53.5t59.5 49.5t60.5 43.5t66.5 44q-69 244 -69 405q0 119 68.5 185.5t162.5 66.5q92 0 158 -63.5t66 -178.5q0 -36 -8 -69.5t-18.5 -58.5t-32 -52t-38.5 -44.5
t-48.5 -41.5t-50.5 -37t-56.5 -37.5t-55.5 -36.5q61 -186 156.5 -377t206.5 -339q100 118 100 297q0 214 -192 344h-142v12h318v-12h-158q184 -134 184 -344q0 -184 -104 -303q218 -291 412 -299q-83 -54 -154 -54q-137 0 -342 279q-90 -55 -205 -55zM178 379
q0 -167 93.5 -278t250.5 -111q109 0 197 53q-108 150 -199.5 344.5t-150.5 388.5q-89 -72 -140 -165.5t-51 -231.5zM369 1196q0 -144 69 -354q51 36 87.5 70t70 79.5t51 102.5t17.5 125q0 103 -42.5 161t-101.5 58q-61 0 -106 -64t-45 -178z" />
    <glyph glyph-name="quotesingle" unicode="'" horiz-adv-x="180" 
d="M94 1075h-10l-35 326q1 23 14 36t29 13q17 0 28.5 -13t10.5 -36z" />
    <glyph glyph-name="parenleft" unicode="(" horiz-adv-x="495" 
d="M446 -131q-96 0 -173.5 71.5t-125 189t-73.5 267t-26 306t26 306t73.5 267t125 189t173.5 71.5v-10q-70 0 -126 -71t-91 -186.5t-53.5 -263.5t-18.5 -302.5t18.5 -302.5t53.5 -263.5t91 -186.5t126 -71v-10z" />
    <glyph glyph-name="parenright" unicode=")" horiz-adv-x="495" 
d="M49 -131v10q70 0 126 71t91 186.5t53.5 263.5t18.5 302.5t-18.5 302.5t-53.5 263.5t-91 186.5t-126 71v10q95 0 172.5 -71.5t125 -189t73.5 -267t26 -306t-26 -306t-73.5 -267t-125 -189t-172.5 -71.5z" />
    <glyph glyph-name="asterisk" unicode="*" horiz-adv-x="698" 
d="M104 1214q-22 9 -29.5 27t2 32.5t29.5 14.5q11 0 23 -6l217 -104l-31 239q0 22 11 33.5t26 11.5q14 0 24.5 -11.5t10.5 -33.5l-33 -239l215 112q8 4 23 4q19 0 28.5 -14t2.5 -31.5t-29 -25.5l-238 -54l172 -170q19 -26 11 -44.5t-31 -18.5q-22 0 -37 18l-119 209h-2
l-123 -209q-13 -18 -37 -18q-22 0 -29.5 18.5t11.5 44.5l170 170z" />
    <glyph glyph-name="plus" unicode="+" horiz-adv-x="671" 
d="M332 707h-283v10h283v282h10v-282h281v-10h-281v-281h-10v281z" />
    <glyph glyph-name="comma" unicode="," horiz-adv-x="331" 
d="M66 -150v9q63 9 100 65q29 42 14 62q-6 8 -18 8q-25 0 -41.5 13.5t-20 32.5t0.5 38.5t21.5 33t43.5 13.5q36 0 53 -23t17 -51q0 -69 -52 -131.5t-118 -69.5z" />
    <glyph glyph-name="hyphen" unicode="-" horiz-adv-x="563" 
d="M49 717h465v-10h-465v10z" />
    <glyph glyph-name="period" unicode="." horiz-adv-x="329" 
d="M178 125q34 0 53.5 -22t19.5 -48.5t-19.5 -48.5t-53.5 -22t-53.5 22t-19.5 48.5t19.5 48.5t53.5 22z" />
    <glyph glyph-name="slash" unicode="/" horiz-adv-x="579" 
d="M49 -125l471 1569h12l-471 -1569h-12z" />
    <glyph glyph-name="zero" unicode="0" horiz-adv-x="866" 
d="M434 1434q-56 0 -100.5 -61.5t-72.5 -162.5t-43 -230t-15 -263t15 -263t43 -230t72.5 -162.5t100.5 -61.5q63 0 112 79t74.5 205.5t37.5 279.5t0 306t-37.5 279.5t-74.5 205.5t-112 79zM434 -10q-87 0 -157 62.5t-113 164.5t-66.5 233t-24 267t23 267t66.5 233
t113.5 164.5t157.5 62.5q86 0 156 -62.5t113 -164.5t66.5 -233t23.5 -267t-23 -267t-66 -233t-113 -164.5t-157 -62.5z" />
    <glyph glyph-name="one" unicode="1" horiz-adv-x="497" 
d="M66 1255v13q195 72 233 172h10v-1321q0 -47 30 -77t77 -30h8v-12h-350v12h6q47 0 76.5 30t29.5 77v1177z" />
    <glyph glyph-name="two" unicode="2" horiz-adv-x="739" 
d="M61 0v8q0 126 29.5 237.5t76.5 194.5t104 158t114.5 142t104.5 132.5t76.5 144t29.5 161.5q0 119 -61.5 187.5t-169.5 68.5q-71 0 -123.5 -27.5t-82 -76t-43.5 -107t-14 -127.5h-12v338h10q11 -33 43 -33q14 0 88 21.5t134 21.5q151 0 241 -83t90 -212
q0 -103 -30.5 -190.5t-80.5 -152t-111 -124t-125 -119t-118.5 -123t-95.5 -151t-53 -189.5h401q51 0 87 25.5t51.5 61.5t23.5 72t8 61v26h13v-346h-605z" />
    <glyph glyph-name="three" unicode="3" horiz-adv-x="768" 
d="M152 367q0 -22 -15.5 -33t-33 -17t-32 -19.5t-11.5 -51t28 -101.5q67 -145 236 -145q59 0 109 26.5t82.5 71.5t55.5 104.5t28.5 125t0.5 132t-28 127.5t-56.5 109.5t-85.5 80t-115 36.5h-34v12q154 0 236 132q66 107 56 245q-9 131 -81 195q-44 39 -103 39
q-124 0 -194 -92.5t-70 -247.5h-12v338h10q11 -31 45 -31q20 0 97.5 20.5t129.5 20.5q154 0 236 -109q70 -94 53 -220q-17 -132 -124 -216q-81 -64 -198 -80q91 -12 164 -55t117.5 -103.5t67 -134t20.5 -147.5t-29.5 -144.5t-76.5 -124.5t-127 -87t-174 -33
q-139 0 -210 94.5t-71 243.5q0 38 20 59t46 21q18 0 30.5 -11t12.5 -30z" />
    <glyph glyph-name="four" unicode="4" horiz-adv-x="792" 
d="M20 555l549 879h13v-869h190v-10h-190v-436q0 -47 29.5 -77t76.5 -30h8v-12h-350v12h6q47 0 77 30t30 77v436h-439zM39 565h420v672z" />
    <glyph glyph-name="five" unicode="5" horiz-adv-x="786" 
d="M39 328h12q-1 -49 7 -94t27.5 -88.5t49.5 -75t77.5 -51t106.5 -19.5q136 0 222 125q79 115 78 274q-1 171 -97 282q-105 120 -286 120h-95l35 633h506v-265h-12v18t-8 39t-23.5 50t-51.5 39.5t-87 17.5h-318l-28 -522h82h6q262 -2 400 -152q105 -114 102 -272
q-2 -151 -101 -262q-126 -132 -324 -135q-139 0 -209.5 94.5t-70.5 243.5z" />
    <glyph glyph-name="six" unicode="6" horiz-adv-x="870" 
d="M459 -10q-112 0 -196.5 80t-126 208.5t-58 283.5t7 310t68.5 283.5t127.5 208.5t183.5 80q56 0 102.5 -24.5t77 -66t50.5 -90t30 -102.5h-10q-20 113 -83 193t-167 80q-86 0 -149.5 -124t-91.5 -307t-23 -382q6 68 22 123.5t45 103t78 74t113 26.5q108 0 187.5 -71
t115.5 -177.5t36 -230.5t-36 -230.5t-115.5 -177.5t-187.5 -71zM209 489q13 -139 43.5 -246.5t84 -175t122.5 -67.5q59 0 105.5 51.5t70.5 134.5t35 183t0 200t-35 183t-70.5 134.5t-105.5 51.5t-104 -24.5t-72 -63.5t-44 -94t-23.5 -109t-6.5 -115v-43z" />
    <glyph glyph-name="seven" unicode="7" horiz-adv-x="710" 
d="M53 1087h-12v347h659l-16 -27q-30 -51 -62.5 -117t-85 -204t-91.5 -286.5t-68 -363t-29 -436.5h-123q1 195 43.5 406.5t109.5 390.5t127 307.5t118 228.5h-498q-36 -35 -54 -96.5t-18 -105.5v-44z" />
    <glyph glyph-name="eight" unicode="8" horiz-adv-x="813" 
d="M59 283q0 143 76 268.5t184 208.5q-99 99 -152.5 190t-53.5 205q0 92 44.5 159.5t111.5 98.5t145 31q76 0 141.5 -30t108.5 -93.5t43 -149.5q0 -121 -57 -221.5t-150 -199.5q60 -54 98.5 -95.5t79.5 -99t61.5 -122.5t20.5 -138q0 -72 -31.5 -131t-83.5 -95.5
t-116.5 -56.5t-133.5 -20q-138 0 -237 76t-99 215zM664 260q0 50 -15.5 99t-35 85t-60 84t-67 74t-80 76.5t-76.5 73.5q-86 -70 -134.5 -195.5t-48.5 -275.5q0 -132 77 -204.5t182 -72.5q104 0 181 69t77 187zM627 1171q0 124 -65 191.5t-154 67.5q-88 0 -151.5 -63
t-63.5 -173q0 -27 5 -53.5t11.5 -49t20.5 -48t25 -43.5t32.5 -43.5t34 -40t40 -41t40.5 -38.5t44 -40t43 -39q138 160 138 413z" />
    <glyph glyph-name="nine" unicode="9" horiz-adv-x="864" 
d="M412 485q-82 0 -148 41t-107 108.5t-63 154t-21.5 176t22.5 176t62.5 154t106.5 108.5t148 41q106 0 188.5 -80t124.5 -208.5t60.5 -283.5t-4.5 -310t-69.5 -283.5t-135 -208.5t-201.5 -80q-59 0 -106.5 24t-78 65.5t-50 88.5t-29.5 102h10q20 -114 82.5 -192t171.5 -78
q75 0 134.5 70.5t94 186t51 256t11.5 288.5q-6 -66 -22 -120t-45 -99.5t-76.5 -71t-110.5 -25.5zM412 1434q-69 0 -119 -69.5t-73 -173.5t-23 -226t23 -226t73 -173.5t119 -69.5q247 0 247 413q-13 147 -43.5 262.5t-83.5 189t-120 73.5z" />
    <glyph glyph-name="colon" unicode=":" horiz-adv-x="245" 
d="M125 842q44 0 62.5 -35.5t0 -71t-62.5 -35.5q-34 0 -53.5 22t-19.5 49t19.5 49t53.5 22zM121 125q34 0 53.5 -22t19.5 -48.5t-19.5 -48.5t-53.5 -22t-53.5 22t-19.5 48.5t19.5 48.5t53.5 22z" />
    <glyph glyph-name="semicolon" unicode=";" horiz-adv-x="276" 
d="M150 842q34 0 53.5 -22t19.5 -49t-19.5 -49t-53.5 -22t-53.5 22t-19.5 49t19.5 49t53.5 22zM51 -150v9q61 9 99 65q28 42 13 62q-6 8 -18 8q-25 0 -41.5 13.5t-20 32.5t1 38.5t22 33t43.5 13.5q37 0 54 -22.5t17 -51.5q0 -69 -52 -131.5t-118 -69.5z" />
    <glyph glyph-name="less" unicode="&#x3c;" horiz-adv-x="638" 
d="M590 410l-541 301v12l541 301v-12l-531 -295l531 -295v-12z" />
    <glyph glyph-name="equal" unicode="=" horiz-adv-x="671" 
d="M49 780v11h574v-11h-574zM49 623h574v-11h-574v11z" />
    <glyph glyph-name="greater" unicode="&#x3e;" horiz-adv-x="638" 
d="M580 717l-531 295v12l541 -301v-12l-541 -301v12z" />
    <glyph glyph-name="question" unicode="?" horiz-adv-x="720" 
d="M74 1190q0 58 25 107.5t64.5 80.5t85.5 48.5t89 17.5q151 0 244.5 -76.5t93.5 -200.5q0 -85 -21.5 -152t-56 -112t-76 -87.5t-83 -93t-75.5 -113t-55 -162.5t-20 -228h-15q0 133 16.5 238.5t43 172.5t58.5 121.5t64.5 98t59 87.5t43 105.5t16.5 137.5q0 114 -63 184
t-174 70q-97 0 -175.5 -70t-78.5 -176q0 -42 10 -71.5t20 -38.5l11 -9l-10 -4q-5 3 -11.5 11t-18 40t-11.5 74zM283 125q34 0 53.5 -22t19.5 -48.5t-19.5 -48.5t-53.5 -22t-53.5 22t-19.5 48.5t19.5 48.5t53.5 22z" />
    <glyph glyph-name="at" unicode="@" horiz-adv-x="909" 
d="M496 -20q-130 0 -227 81t-142 210t-62 285.5t11.5 313t80 285.5t141.5 210t198 81q150 0 246 -183q86 -164 98 -396q10 -219 -53 -347q-49 -100 -130 -100q-36 0 -69 23.5t-41 66.5q-11 -34 -39 -55t-66 -21q-91 0 -137 93q-46 94 -21 216q28 138 133 211q80 55 191 56
q4 -436 4 -475q0 -29 1 -42.5t4.5 -30.5t13.5 -23.5t26 -6.5q91 0 139 137q51 149 29 366q-24 235 -121 375q-87 126 -208 126q-77 0 -143.5 -62t-111 -164t-71.5 -231.5t-32 -265.5t14.5 -265.5t60.5 -231.5t114.5 -164t168.5 -62q110 0 188.5 72.5t81.5 181.5h10
q-3 -114 -84 -189t-196 -75zM541 991q-122 -32 -171 -167.5t-21.5 -256.5t93.5 -121q39 0 68 25t35 64q0 18 -2 218t-2 238z" />
    <glyph glyph-name="A" unicode="A" horiz-adv-x="997" 
d="M20 0v12h39q51 0 89.5 30t48.5 79l299 1323h14l317 -1323q12 -49 50.5 -79t89.5 -30h10v-12h-363v12h4q51 0 75 30t12 79l-56 231h-387l-53 -231q-11 -50 13 -79.5t75 -29.5h41v-12h-318zM451 1178l-187 -816h381z" />
    <glyph glyph-name="B" unicode="B" horiz-adv-x="917" 
d="M74 1434h334q114 0 199 -43.5t126.5 -109.5t48.5 -145t-23 -150t-101.5 -125.5t-172.5 -69.5q96 -12 172.5 -53t122.5 -98.5t68.5 -127.5t18 -141t-37 -138t-87 -118.5t-141.5 -83t-193 -31.5h-334v12q51 0 81.5 31t30.5 82v1186q0 51 -30.5 81.5t-81.5 30.5v11zM408 784
h-99v-772h99q80 1 144 34.5t103.5 87.5t61 123.5t21.5 141.5t-21.5 141t-61 123t-103.5 87.5t-144 33.5zM309 1423v-628h99q63 0 114 27t82 71t48 100.5t16.5 115.5t-17.5 115.5t-48 100.5t-81.5 71t-113.5 27h-99z" />
    <glyph glyph-name="C" unicode="C" horiz-adv-x="827" 
d="M494 -10q-118 0 -210.5 80t-140 208.5t-70.5 283.5t-0.5 310t70.5 283.5t141 208.5t212 80q36 0 94.5 -15.5t77.5 -15.5q29 0 41 21h6v-344h-13q0 344 -208 344q-64 0 -117.5 -49t-88 -131.5t-58.5 -190t-29.5 -226t-0.5 -237.5t29.5 -226t59 -190t88.5 -132.5t119 -49.5
q111 0 175 85.5t64 240.5h15q0 -47 -7 -91.5t-25.5 -90t-46.5 -79.5t-73.5 -55.5t-103.5 -21.5z" />
    <glyph glyph-name="D" unicode="D" horiz-adv-x="962" 
d="M74 1434h334q132 0 235.5 -79t157 -205.5t78.5 -279.5t0 -306t-78.5 -279.5t-157 -205.5t-235.5 -79h-334v12q51 0 81.5 31t30.5 82v1186q0 51 -30.5 81.5t-81.5 30.5v11zM309 12h99q76 1 139 50t104 130.5t69.5 187.5t35 223t0 233.5t-35 222t-69.5 187t-104 129.5
t-139 48h-99v-1411z" />
    <glyph glyph-name="E" unicode="E" horiz-adv-x="815" 
d="M74 12q51 0 81.5 31t30.5 82v1186q0 51 -30.5 81.5t-81.5 30.5v11h659v-338h-10v18.5t-3 45.5t-9 65t-20 69t-34 65t-53 45.5t-74 18.5h-221v-651h150q38 0 65.5 17.5t39 42t17 49t5.5 41.5v18h10v-346h-10v18t-5.5 40t-17 51.5t-39 40.5t-65.5 18h-150v-750h221
q57 0 97.5 33.5t58.5 81.5t27.5 96t9.5 81v34h10v-338h-659v12z" />
    <glyph glyph-name="F" unicode="F" horiz-adv-x="817" 
d="M74 1434h659v-338h-10v18.5t-3 45.5t-9 65t-20 69t-34 65t-53 45.5t-74 18.5h-221v-706h150q38 0 65.5 17.5t39 42t17 49t5.5 42.5v17h10v-346h-10v18t-5.5 40t-17 51.5t-39 40.5t-65.5 18h-150v-582q0 -51 31 -82t82 -31h2v-12h-350v12q51 0 81.5 31t30.5 82v1186
q0 51 -30.5 81.5t-81.5 30.5v11z" />
    <glyph glyph-name="G" unicode="G" horiz-adv-x="946" 
d="M504 -10q-118 0 -210.5 80t-140 208.5t-70.5 283.5t-0.5 310t70.5 283.5t141 208.5t212 80q40 0 97.5 -15.5t74.5 -15.5q26 0 41 21h4v-344h-10q0 54 -3.5 96t-16 91t-34.5 81t-61.5 54t-93.5 22q-64 0 -117.5 -49t-88.5 -131.5t-59.5 -190t-30 -226t0 -237.5t30 -226
t59 -190t89 -132.5t119.5 -49.5q50 0 83.5 22.5t51 69t24.5 104.5t7 142v287q0 51 -31 81.5t-82 30.5v11h332v-11h-2q-51 0 -82 -30.5t-31 -81.5v-627h-14q0 17 -1.5 28.5t-6 26.5t-16.5 23t-31 8q-22 0 -39.5 -9t-23.5 -17l-7 -9v2q-44 -63 -133 -63z" />
    <glyph glyph-name="H" unicode="H" horiz-adv-x="1054" 
d="M74 1423v11h350v-11h-2q-51 0 -82 -30.5t-31 -81.5v-537h434v537q0 51 -30.5 81.5t-81.5 30.5h-2v11h352v-11h-2q-51 0 -82 -30.5t-31 -81.5v-1186q0 -51 31 -82t82 -31h2v-12h-350v12q51 0 81.5 31t30.5 82v637h-434v-637q0 -51 31 -82t82 -31h2v-12h-350v12
q51 0 81.5 31t30.5 82v1186q0 51 -30.5 81.5t-81.5 30.5z" />
    <glyph glyph-name="I" unicode="I" horiz-adv-x="497" 
d="M424 0h-350v12h4q49 0 78.5 29.5t29.5 79.5v1194q0 49 -29 78.5t-79 29.5h-4v11h350v-11h-6q-50 0 -79.5 -29.5t-29.5 -78.5v-1194q0 -49 29.5 -79t79.5 -30h6v-12z" />
    <glyph glyph-name="J" unicode="J" horiz-adv-x="473" 
d="M-31 -209l2 10q10 -2 31 -2q42 0 73.5 13.5t49.5 36.5t29.5 54t14.5 66.5t5 72.5t0 73v35v1165q0 49 -29 78.5t-79 29.5h-5v11h351v-11h-6q-50 0 -79.5 -29.5t-29.5 -78.5v-1184q0 -154 -72 -249t-207 -95z" />
    <glyph glyph-name="K" unicode="K" 
d="M309 784v-659q0 -51 31 -82t82 -31h2v-12h-350v12q51 0 81.5 31t30.5 82v1186q0 51 -30.5 81.5t-81.5 30.5v11h350v-11h-2q-51 0 -82 -30.5t-31 -81.5v-506l430 532q32 38 20 62t-63 24h-49v11h316v-11h-27q-50 0 -99.5 -23.5t-82.5 -62.5l-441 -544q104 -2 179 -30
t115.5 -74t65.5 -104.5t35 -123.5t17.5 -129.5t20 -122.5t36 -103t70.5 -72t119 -28v-10h-35q-81 0 -141 21.5t-94.5 59t-59.5 87.5t-35.5 106t-21.5 115.5t-18.5 116t-26 107t-44 89t-73 61.5t-113.5 25z" />
    <glyph glyph-name="L" unicode="L" horiz-adv-x="829" 
d="M74 1423v11h350v-11h-2q-51 0 -82 -30.5t-31 -81.5v-1299h221q57 0 97.5 33.5t58.5 81.5t27.5 96t9.5 81v34h10v-338h-659v12q51 0 81.5 31t30.5 82v1186q0 51 -30.5 81.5t-81.5 30.5z" />
    <glyph glyph-name="M" unicode="M" horiz-adv-x="1259" 
d="M74 12h14q51 0 82 31t31 82v1186q0 51 -31 81.5t-82 30.5h-14v11h221l348 -818l307 818h236v-11q-51 0 -82 -30.5t-31 -81.5v-1186q0 -51 31 -82t82 -31v-12h-348v12q51 0 81.5 31t30.5 82v1280l-354 -952h-10l-375 868v-1196q0 -51 31 -82t82 -31h14v-12h-264v12z" />
    <glyph glyph-name="N" unicode="N" horiz-adv-x="1013" 
d="M74 12h14q51 0 82 31t31 82v1192q0 47 -30 76.5t-77 29.5h-20v11h221l508 -1129v1006q0 51 -31 81.5t-82 30.5h-14v11h264v-11h-14q-51 0 -82 -30.5t-31 -81.5v-1311h-10l-592 1317v-1192q0 -51 31 -82t82 -31h14v-12h-264v12z" />
    <glyph glyph-name="O" unicode="O" horiz-adv-x="1011" 
d="M506 1434q-64 0 -118 -49t-89 -132t-60 -190.5t-30 -226t0 -237t29.5 -226t59.5 -190.5t90 -132t120 -49q64 0 118 49t89 132t60 190.5t30 226t0 237t-29.5 226t-59.5 190.5t-90 132t-120 49zM506 -10q-118 0 -211.5 80t-141.5 208.5t-71 283.5t-0.5 310t71 283.5
t142 208.5t213.5 80q118 0 211 -80t141 -208.5t70.5 -283.5t0 -310t-70.5 -283.5t-141.5 -208.5t-212.5 -80z" />
    <glyph glyph-name="P" unicode="P" horiz-adv-x="851" 
d="M74 0v12q51 0 81.5 31t30.5 82v1186q0 51 -30.5 81.5t-81.5 30.5v11h352q92 -1 166.5 -32.5t120.5 -82.5t71 -116t25 -132.5t-25 -132.5t-71 -116t-120.5 -82.5t-166.5 -32.5h-117v-582q0 -51 31 -82t82 -31h2v-12h-350zM309 1423v-706h103q86 0 149.5 52.5t92 130.5
t28.5 170t-28.5 170t-92 130.5t-149.5 52.5h-103z" />
    <glyph glyph-name="Q" unicode="Q" horiz-adv-x="1017" 
d="M438 -4q-122 26 -209 145t-124 279t-31 340.5t53.5 332t147 251.5t233.5 100q103 0 186 -61.5t135 -162t80.5 -229t30 -263.5t-25 -265t-76 -233.5t-131.5 -169t-183 -70.5q54 -11 174.5 -61t182.5 -50q59 0 114 35q-70 -90 -149 -90q-42 0 -96 24.5t-99.5 54.5
t-106 54.5t-114.5 24.5q-85 0 -162 -58l-8 8q89 61 178 64zM506 1434q-64 0 -118 -49t-89 -132t-60 -190.5t-30 -226t0 -237t29.5 -226t59.5 -190.5t90 -132t120 -49q64 0 118 49t89 132t60 190.5t30 226t0 237t-29.5 226t-59.5 190.5t-90 132t-120 49z" />
    <glyph glyph-name="R" unicode="R" 
d="M309 1423v-628h103q65 0 118 27t85.5 71t50 100.5t17.5 115.5t-17.5 115.5t-50 100.5t-85.5 71t-118 27h-103zM426 784h-16q81 -13 139 -48.5t88.5 -83t49.5 -106t27 -119.5t15.5 -121.5t20.5 -113.5t36.5 -94t70 -65t114.5 -25v-8h-35q-89 0 -153 26.5t-99 71t-57 103
t-33 122.5t-20.5 129t-25 123.5t-41.5 104.5t-76 74t-122 30v-659q0 -51 31 -82t82 -31h2v-12h-350v12q51 0 81.5 31t30.5 82v1186q0 51 -30.5 81.5t-81.5 30.5v11h352q92 -1 166.5 -29t120.5 -73.5t71 -103.5t25 -119t-25 -119t-71 -103.5t-120.5 -73.5t-166.5 -29z" />
    <glyph glyph-name="S" unicode="S" horiz-adv-x="776" 
d="M74 0v340h12q0 -75 15.5 -135t48 -107t87.5 -72.5t130 -25.5q107 0 175 61.5t68 171.5q0 70 -29 138t-75.5 126t-103 116t-113 119t-103 124t-75.5 141.5t-29 161.5q0 93 44.5 159.5t112 96t148.5 29.5q75 0 143 -33q33 -16 66 -16q47 0 61 39h11v-338h-13
q0 72 -14.5 131t-44.5 106.5t-83.5 74t-125.5 26.5q-100 0 -153.5 -63.5t-53.5 -168.5q0 -69 29 -136t75.5 -123t102 -112.5t111.5 -116.5t102.5 -123.5t75.5 -144t29 -167.5q0 -71 -30.5 -128t-80.5 -91t-108.5 -52t-118.5 -18q-85 0 -158 39q-30 12 -57 12q-53 0 -68 -41
h-10z" />
    <glyph glyph-name="T" unicode="T" horiz-adv-x="862" 
d="M74 1434h714v-347h-10q-1 1 0.5 18.5t-1.5 48t-6.5 66t-14.5 71.5t-25.5 65.5t-39.5 48t-56 18.5h-131v-1298q0 -51 30.5 -82t81.5 -31h2v-12h-350v12q51 0 82 31t31 82v1298h-154q-43 0 -73.5 -34.5t-43.5 -84t-19.5 -99t-6.5 -83.5v-35h-10v347z" />
    <glyph glyph-name="U" unicode="U" horiz-adv-x="976" 
d="M61 1434h351v-11h-2q-51 0 -82 -30.5t-31 -81.5v-1037q0 -127 67 -195.5t162 -68.5q101 0 177.5 71t76.5 191v1039q0 51 -30.5 81.5t-81.5 30.5h-17v11h269v-11h-17q-51 0 -81.5 -30.5t-30.5 -81.5v-1035q0 -70 -26.5 -126t-70 -90.5t-98 -53t-113.5 -18.5
q-60 0 -114.5 18.5t-98.5 53t-70 90.5t-26 126v1035q0 51 -31 81.5t-82 30.5v11z" />
    <glyph glyph-name="V" unicode="V" horiz-adv-x="997" 
d="M20 1423v11h363v-11h-4q-51 0 -74.5 -29.5t-11.5 -78.5l256 -1059l239 1059q11 50 -13 79t-75 29h-41v11h318v-11h-39q-51 0 -89 -29.5t-48 -78.5l-297 -1325h-17l-317 1325q-12 49 -50 78.5t-89 29.5h-11z" />
    <glyph glyph-name="W" unicode="W" horiz-adv-x="1404" 
d="M20 1434h363v-11h-4q-51 0 -75 -30t-15 -80l207 -1037l245 1158h15l223 -1160l221 1041q10 49 -14.5 78.5t-75.5 29.5h-43v11h317v-11h-36q-51 0 -88.5 -29.5t-47.5 -78.5l-278 -1325h-14l-228 1155l-241 -1155h-15l-270 1325q-10 49 -47 78.5t-88 29.5h-11v11z" />
    <glyph glyph-name="X" unicode="X" horiz-adv-x="911" 
d="M25 1423h-5v11h351v-11q-50 0 -69.5 -28t-2.5 -74l182 -496l181 494q17 47 -3 75.5t-71 28.5h-45v11h323v-11h-41q-51 0 -92.5 -28.5t-58.5 -75.5l-187 -512l258 -692q17 -46 57 -74.5t89 -28.5v-12h-350v12q51 0 70.5 29t2.5 76l-188 518l-190 -518q-17 -47 2.5 -76
t70.5 -29h41v-12h-321v12h41q51 0 92.5 29t58.5 76l197 536l-242 666q-17 47 -58.5 75.5t-92.5 28.5z" />
    <glyph glyph-name="Y" unicode="Y" horiz-adv-x="907" 
d="M20 1434h351v-11q-47 0 -68 -28t-8 -74l201 -668l194 666q14 46 -7.5 75t-70.5 29h-49v11h324v-11h-45q-49 0 -87.5 -29t-52.5 -75l-202 -696v-502q0 -50 29.5 -79.5t78.5 -29.5h6v-12h-350v12h4q50 0 79.5 30t29.5 79v502l-211 696q-14 46 -52 75t-87 29h-7v11z" />
    <glyph glyph-name="Z" unicode="Z" horiz-adv-x="765" 
d="M41 0l557 1423h-332q-51 0 -87.5 -34.5t-52 -84t-24 -99t-8.5 -83.5v-35h-10v347h641l-557 -1422h342q51 0 87.5 34.5t52 83.5t24 98t8.5 84v34h10v-346h-651z" />
    <glyph glyph-name="bracketleft" unicode="[" horiz-adv-x="337" 
d="M49 1507h240v-10h-129v-1567h129v-10h-240v1587z" />
    <glyph glyph-name="backslash" unicode="\" horiz-adv-x="579" 
d="M49 1444h12l471 -1569h-12z" />
    <glyph glyph-name="bracketright" unicode="]" horiz-adv-x="337" 
d="M289 -80h-240v10h129v1567h-129v10h240v-1587z" />
    <glyph glyph-name="asciicircum" unicode="^" horiz-adv-x="628" 
d="M49 895l258 549h15l258 -549h-15l-252 535l-250 -535h-14z" />
    <glyph glyph-name="underscore" unicode="_" horiz-adv-x="729" 
d="M49 -76h631v-10h-631v10z" />
    <glyph glyph-name="grave" unicode="`" horiz-adv-x="247" 
d="M18 1341l35 27l174 -260l-8 -8z" />
    <glyph glyph-name="a" unicode="a" horiz-adv-x="997" 
d="M20 0v12h39q51 0 89.5 30t48.5 79l299 1323h14l317 -1323q12 -49 50.5 -79t89.5 -30h10v-12h-363v12h4q51 0 75 30t12 79l-56 231h-387l-53 -231q-11 -50 13 -79.5t75 -29.5h41v-12h-318zM451 1178l-187 -816h381z" />
    <glyph glyph-name="b" unicode="b" horiz-adv-x="917" 
d="M74 1434h334q114 0 199 -43.5t126.5 -109.5t48.5 -145t-23 -150t-101.5 -125.5t-172.5 -69.5q96 -12 172.5 -53t122.5 -98.5t68.5 -127.5t18 -141t-37 -138t-87 -118.5t-141.5 -83t-193 -31.5h-334v12q51 0 81.5 31t30.5 82v1186q0 51 -30.5 81.5t-81.5 30.5v11zM408 784
h-99v-772h99q80 1 144 34.5t103.5 87.5t61 123.5t21.5 141.5t-21.5 141t-61 123t-103.5 87.5t-144 33.5zM309 1423v-628h99q63 0 114 27t82 71t48 100.5t16.5 115.5t-17.5 115.5t-48 100.5t-81.5 71t-113.5 27h-99z" />
    <glyph glyph-name="c" unicode="c" horiz-adv-x="827" 
d="M494 -10q-118 0 -210.5 80t-140 208.5t-70.5 283.5t-0.5 310t70.5 283.5t141 208.5t212 80q36 0 94.5 -15.5t77.5 -15.5q29 0 41 21h6v-344h-13q0 344 -208 344q-64 0 -117.5 -49t-88 -131.5t-58.5 -190t-29.5 -226t-0.5 -237.5t29.5 -226t59 -190t88.5 -132.5t119 -49.5
q111 0 175 85.5t64 240.5h15q0 -47 -7 -91.5t-25.5 -90t-46.5 -79.5t-73.5 -55.5t-103.5 -21.5z" />
    <glyph glyph-name="d" unicode="d" horiz-adv-x="962" 
d="M74 1434h334q132 0 235.5 -79t157 -205.5t78.5 -279.5t0 -306t-78.5 -279.5t-157 -205.5t-235.5 -79h-334v12q51 0 81.5 31t30.5 82v1186q0 51 -30.5 81.5t-81.5 30.5v11zM309 12h99q76 1 139 50t104 130.5t69.5 187.5t35 223t0 233.5t-35 222t-69.5 187t-104 129.5
t-139 48h-99v-1411z" />
    <glyph glyph-name="e" unicode="e" horiz-adv-x="815" 
d="M74 12q51 0 81.5 31t30.5 82v1186q0 51 -30.5 81.5t-81.5 30.5v11h659v-338h-10v18.5t-3 45.5t-9 65t-20 69t-34 65t-53 45.5t-74 18.5h-221v-651h150q38 0 65.5 17.5t39 42t17 49t5.5 41.5v18h10v-346h-10v18t-5.5 40t-17 51.5t-39 40.5t-65.5 18h-150v-750h221
q57 0 97.5 33.5t58.5 81.5t27.5 96t9.5 81v34h10v-338h-659v12z" />
    <glyph glyph-name="f" unicode="f" horiz-adv-x="817" 
d="M74 1434h659v-338h-10v18.5t-3 45.5t-9 65t-20 69t-34 65t-53 45.5t-74 18.5h-221v-706h150q38 0 65.5 17.5t39 42t17 49t5.5 42.5v17h10v-346h-10v18t-5.5 40t-17 51.5t-39 40.5t-65.5 18h-150v-582q0 -51 31 -82t82 -31h2v-12h-350v12q51 0 81.5 31t30.5 82v1186
q0 51 -30.5 81.5t-81.5 30.5v11z" />
    <glyph glyph-name="g" unicode="g" horiz-adv-x="946" 
d="M504 -10q-118 0 -210.5 80t-140 208.5t-70.5 283.5t-0.5 310t70.5 283.5t141 208.5t212 80q40 0 97.5 -15.5t74.5 -15.5q26 0 41 21h4v-344h-10q0 54 -3.5 96t-16 91t-34.5 81t-61.5 54t-93.5 22q-64 0 -117.5 -49t-88.5 -131.5t-59.5 -190t-30 -226t0 -237.5t30 -226
t59 -190t89 -132.5t119.5 -49.5q50 0 83.5 22.5t51 69t24.5 104.5t7 142v287q0 51 -31 81.5t-82 30.5v11h332v-11h-2q-51 0 -82 -30.5t-31 -81.5v-627h-14q0 17 -1.5 28.5t-6 26.5t-16.5 23t-31 8q-22 0 -39.5 -9t-23.5 -17l-7 -9v2q-44 -63 -133 -63z" />
    <glyph glyph-name="h" unicode="h" horiz-adv-x="1054" 
d="M74 1423v11h350v-11h-2q-51 0 -82 -30.5t-31 -81.5v-537h434v537q0 51 -30.5 81.5t-81.5 30.5h-2v11h352v-11h-2q-51 0 -82 -30.5t-31 -81.5v-1186q0 -51 31 -82t82 -31h2v-12h-350v12q51 0 81.5 31t30.5 82v637h-434v-637q0 -51 31 -82t82 -31h2v-12h-350v12
q51 0 81.5 31t30.5 82v1186q0 51 -30.5 81.5t-81.5 30.5z" />
    <glyph glyph-name="i" unicode="i" horiz-adv-x="497" 
d="M424 0h-350v12h4q49 0 78.5 29.5t29.5 79.5v1194q0 49 -29 78.5t-79 29.5h-4v11h350v-11h-6q-50 0 -79.5 -29.5t-29.5 -78.5v-1194q0 -49 29.5 -79t79.5 -30h6v-12z" />
    <glyph glyph-name="j" unicode="j" horiz-adv-x="473" 
d="M-31 -209l2 10q10 -2 31 -2q42 0 73.5 13.5t49.5 36.5t29.5 54t14.5 66.5t5 72.5t0 73v35v1165q0 49 -29 78.5t-79 29.5h-5v11h351v-11h-6q-50 0 -79.5 -29.5t-29.5 -78.5v-1184q0 -154 -72 -249t-207 -95z" />
    <glyph glyph-name="k" unicode="k" 
d="M309 784v-659q0 -51 31 -82t82 -31h2v-12h-350v12q51 0 81.5 31t30.5 82v1186q0 51 -30.5 81.5t-81.5 30.5v11h350v-11h-2q-51 0 -82 -30.5t-31 -81.5v-506l430 532q32 38 20 62t-63 24h-49v11h316v-11h-27q-50 0 -99.5 -23.5t-82.5 -62.5l-441 -544q104 -2 179 -30
t115.5 -74t65.5 -104.5t35 -123.5t17.5 -129.5t20 -122.5t36 -103t70.5 -72t119 -28v-10h-35q-81 0 -141 21.5t-94.5 59t-59.5 87.5t-35.5 106t-21.5 115.5t-18.5 116t-26 107t-44 89t-73 61.5t-113.5 25z" />
    <glyph glyph-name="l" unicode="l" horiz-adv-x="829" 
d="M74 1423v11h350v-11h-2q-51 0 -82 -30.5t-31 -81.5v-1299h221q57 0 97.5 33.5t58.5 81.5t27.5 96t9.5 81v34h10v-338h-659v12q51 0 81.5 31t30.5 82v1186q0 51 -30.5 81.5t-81.5 30.5z" />
    <glyph glyph-name="m" unicode="m" horiz-adv-x="1259" 
d="M74 12h14q51 0 82 31t31 82v1186q0 51 -31 81.5t-82 30.5h-14v11h221l348 -818l307 818h236v-11q-51 0 -82 -30.5t-31 -81.5v-1186q0 -51 31 -82t82 -31v-12h-348v12q51 0 81.5 31t30.5 82v1280l-354 -952h-10l-375 868v-1196q0 -51 31 -82t82 -31h14v-12h-264v12z" />
    <glyph glyph-name="n" unicode="n" horiz-adv-x="1013" 
d="M74 12h14q51 0 82 31t31 82v1192q0 47 -30 76.5t-77 29.5h-20v11h221l508 -1129v1006q0 51 -31 81.5t-82 30.5h-14v11h264v-11h-14q-51 0 -82 -30.5t-31 -81.5v-1311h-10l-592 1317v-1192q0 -51 31 -82t82 -31h14v-12h-264v12z" />
    <glyph glyph-name="o" unicode="o" horiz-adv-x="1011" 
d="M506 1434q-64 0 -118 -49t-89 -132t-60 -190.5t-30 -226t0 -237t29.5 -226t59.5 -190.5t90 -132t120 -49q64 0 118 49t89 132t60 190.5t30 226t0 237t-29.5 226t-59.5 190.5t-90 132t-120 49zM506 -10q-118 0 -211.5 80t-141.5 208.5t-71 283.5t-0.5 310t71 283.5
t142 208.5t213.5 80q118 0 211 -80t141 -208.5t70.5 -283.5t0 -310t-70.5 -283.5t-141.5 -208.5t-212.5 -80z" />
    <glyph glyph-name="p" unicode="p" horiz-adv-x="851" 
d="M74 0v12q51 0 81.5 31t30.5 82v1186q0 51 -30.5 81.5t-81.5 30.5v11h352q92 -1 166.5 -32.5t120.5 -82.5t71 -116t25 -132.5t-25 -132.5t-71 -116t-120.5 -82.5t-166.5 -32.5h-117v-582q0 -51 31 -82t82 -31h2v-12h-350zM309 1423v-706h103q86 0 149.5 52.5t92 130.5
t28.5 170t-28.5 170t-92 130.5t-149.5 52.5h-103z" />
    <glyph glyph-name="q" unicode="q" horiz-adv-x="1017" 
d="M438 -4q-122 26 -209 145t-124 279t-31 340.5t53.5 332t147 251.5t233.5 100q103 0 186 -61.5t135 -162t80.5 -229t30 -263.5t-25 -265t-76 -233.5t-131.5 -169t-183 -70.5q54 -11 174.5 -61t182.5 -50q59 0 114 35q-70 -90 -149 -90q-42 0 -96 24.5t-99.5 54.5
t-106 54.5t-114.5 24.5q-85 0 -162 -58l-8 8q89 61 178 64zM506 1434q-64 0 -118 -49t-89 -132t-60 -190.5t-30 -226t0 -237t29.5 -226t59.5 -190.5t90 -132t120 -49q64 0 118 49t89 132t60 190.5t30 226t0 237t-29.5 226t-59.5 190.5t-90 132t-120 49z" />
    <glyph glyph-name="r" unicode="r" 
d="M309 1423v-628h103q65 0 118 27t85.5 71t50 100.5t17.5 115.5t-17.5 115.5t-50 100.5t-85.5 71t-118 27h-103zM426 784h-16q81 -13 139 -48.5t88.5 -83t49.5 -106t27 -119.5t15.5 -121.5t20.5 -113.5t36.5 -94t70 -65t114.5 -25v-8h-35q-89 0 -153 26.5t-99 71t-57 103
t-33 122.5t-20.5 129t-25 123.5t-41.5 104.5t-76 74t-122 30v-659q0 -51 31 -82t82 -31h2v-12h-350v12q51 0 81.5 31t30.5 82v1186q0 51 -30.5 81.5t-81.5 30.5v11h352q92 -1 166.5 -29t120.5 -73.5t71 -103.5t25 -119t-25 -119t-71 -103.5t-120.5 -73.5t-166.5 -29z" />
    <glyph glyph-name="s" unicode="s" horiz-adv-x="776" 
d="M74 0v340h12q0 -75 15.5 -135t48 -107t87.5 -72.5t130 -25.5q107 0 175 61.5t68 171.5q0 70 -29 138t-75.5 126t-103 116t-113 119t-103 124t-75.5 141.5t-29 161.5q0 93 44.5 159.5t112 96t148.5 29.5q75 0 143 -33q33 -16 66 -16q47 0 61 39h11v-338h-13
q0 72 -14.5 131t-44.5 106.5t-83.5 74t-125.5 26.5q-100 0 -153.5 -63.5t-53.5 -168.5q0 -69 29 -136t75.5 -123t102 -112.5t111.5 -116.5t102.5 -123.5t75.5 -144t29 -167.5q0 -71 -30.5 -128t-80.5 -91t-108.5 -52t-118.5 -18q-85 0 -158 39q-30 12 -57 12q-53 0 -68 -41
h-10z" />
    <glyph glyph-name="t" unicode="t" horiz-adv-x="862" 
d="M74 1434h714v-347h-10q-1 1 0.5 18.5t-1.5 48t-6.5 66t-14.5 71.5t-25.5 65.5t-39.5 48t-56 18.5h-131v-1298q0 -51 30.5 -82t81.5 -31h2v-12h-350v12q51 0 82 31t31 82v1298h-154q-43 0 -73.5 -34.5t-43.5 -84t-19.5 -99t-6.5 -83.5v-35h-10v347z" />
    <glyph glyph-name="u" unicode="u" horiz-adv-x="976" 
d="M61 1434h351v-11h-2q-51 0 -82 -30.5t-31 -81.5v-1037q0 -127 67 -195.5t162 -68.5q101 0 177.5 71t76.5 191v1039q0 51 -30.5 81.5t-81.5 30.5h-17v11h269v-11h-17q-51 0 -81.5 -30.5t-30.5 -81.5v-1035q0 -70 -26.5 -126t-70 -90.5t-98 -53t-113.5 -18.5
q-60 0 -114.5 18.5t-98.5 53t-70 90.5t-26 126v1035q0 51 -31 81.5t-82 30.5v11z" />
    <glyph glyph-name="v" unicode="v" horiz-adv-x="997" 
d="M20 1423v11h363v-11h-4q-51 0 -74.5 -29.5t-11.5 -78.5l256 -1059l239 1059q11 50 -13 79t-75 29h-41v11h318v-11h-39q-51 0 -89 -29.5t-48 -78.5l-297 -1325h-17l-317 1325q-12 49 -50 78.5t-89 29.5h-11z" />
    <glyph glyph-name="w" unicode="w" horiz-adv-x="1404" 
d="M20 1434h363v-11h-4q-51 0 -75 -30t-15 -80l207 -1037l245 1158h15l223 -1160l221 1041q10 49 -14.5 78.5t-75.5 29.5h-43v11h317v-11h-36q-51 0 -88.5 -29.5t-47.5 -78.5l-278 -1325h-14l-228 1155l-241 -1155h-15l-270 1325q-10 49 -47 78.5t-88 29.5h-11v11z" />
    <glyph glyph-name="x" unicode="x" horiz-adv-x="911" 
d="M25 1423h-5v11h351v-11q-50 0 -69.5 -28t-2.5 -74l182 -496l181 494q17 47 -3 75.5t-71 28.5h-45v11h323v-11h-41q-51 0 -92.5 -28.5t-58.5 -75.5l-187 -512l258 -692q17 -46 57 -74.5t89 -28.5v-12h-350v12q51 0 70.5 29t2.5 76l-188 518l-190 -518q-17 -47 2.5 -76
t70.5 -29h41v-12h-321v12h41q51 0 92.5 29t58.5 76l197 536l-242 666q-17 47 -58.5 75.5t-92.5 28.5z" />
    <glyph glyph-name="y" unicode="y" horiz-adv-x="907" 
d="M20 1434h351v-11q-47 0 -68 -28t-8 -74l201 -668l194 666q14 46 -7.5 75t-70.5 29h-49v11h324v-11h-45q-49 0 -87.5 -29t-52.5 -75l-202 -696v-502q0 -50 29.5 -79.5t78.5 -29.5h6v-12h-350v12h4q50 0 79.5 30t29.5 79v502l-211 696q-14 46 -52 75t-87 29h-7v11z" />
    <glyph glyph-name="z" unicode="z" horiz-adv-x="765" 
d="M41 0l557 1423h-332q-51 0 -87.5 -34.5t-52 -84t-24 -99t-8.5 -83.5v-35h-10v347h641l-557 -1422h342q51 0 87.5 34.5t52 83.5t24 98t8.5 84v34h10v-346h-651z" />
    <glyph glyph-name="braceleft" unicode="{" horiz-adv-x="456" 
d="M408 -80q-68 0 -114.5 27t-69 72.5t-33 104.5t-10.5 124.5t1 130.5t-1.5 124t-13.5 104.5t-40.5 72.5t-77.5 27v8q48 0 77.5 27t40.5 72.5t13.5 104.5t1.5 124t-1 130t10.5 124t33 104.5t69 72.5t114.5 27v-8q-60 0 -89.5 -40t-33.5 -104.5t0 -143.5t5 -160.5
t-10.5 -151.5t-55 -120t-120.5 -62q77 -12 120.5 -62t55 -120t10.5 -151.5t-5 -160.5t0 -144t33.5 -105t89.5 -40v-8z" />
    <glyph glyph-name="bar" unicode="|" horiz-adv-x="108" 
d="M49 -272v1908h10v-1908h-10z" />
    <glyph glyph-name="braceright" unicode="}" horiz-adv-x="456" 
d="M352 711q-68 11 -110 51t-56 97t-18.5 126.5t1.5 139.5t5.5 136.5t-7 118t-36 82.5t-82.5 31v8q87 0 138.5 -43.5t68 -112.5t19.5 -153t1.5 -168t4 -153t36.5 -112.5t91 -43.5v-8q-60 0 -91 -43.5t-36.5 -113t-4 -153t-1.5 -167.5t-19.5 -153.5t-68 -113t-138.5 -43.5v8
q53 0 82.5 31t36 82.5t7 118t-5.5 137t-1.5 140t18.5 126.5t56 97t110 51z" />
    <glyph glyph-name="asciitilde" unicode="~" horiz-adv-x="743" 
d="M55 690l-6 10q24 36 68 58t86 22q45 0 92 -17t80 -38t77 -38t83 -17q45 0 86 20.5t65 59.5l8 -11q-23 -40 -67 -61t-92 -21q-39 0 -83 17.5t-77 38t-80 38t-92 17.5q-41 0 -83 -21.5t-65 -56.5z" />
    <glyph glyph-name="eacute" unicode="&#xe9;" horiz-adv-x="815" 
d="M74 12q51 0 81.5 31t30.5 82v1186q0 51 -30.5 81.5t-81.5 30.5v11h659v-338h-10v18.5t-3 45.5t-9 65t-20 69t-34 65t-53 45.5t-74 18.5h-221v-651h150q38 0 65.5 17.5t39 42t17 49t5.5 41.5v18h10v-346h-10v18t-5.5 40t-17 51.5t-39 40.5t-65.5 18h-150v-750h221
q57 0 97.5 33.5t58.5 81.5t27.5 96t9.5 81v34h10v-338h-659v12zM303 1518l176 260l33 -27l-201 -242z" />
    <glyph glyph-name="preview" unicode="&#xe000;" horiz-adv-x="6596" 
d="M74 1423v11h350v-11h-2q-51 0 -82 -30.5t-31 -81.5v-1295q116 90 279 90q77 0 243 -28.5t256 -28.5q192 0 261 164q55 -96 -7 -170t-211 -74q-72 0 -154.5 18t-144.5 39.5t-138 39.5t-136 18q-130 0 -248 -84h-235v12q51 0 81.5 31t30.5 82v1186q0 51 -30.5 81.5
t-81.5 30.5zM969 1434q-64 0 -118 -39t-89 -105t-60 -152t-30 -181t0 -189.5t29.5 -180.5t59.5 -152t90 -105t120 -39q64 0 118 39t89 105t60 152t30 181t0 189.5t-29.5 180.5t-59.5 152t-90 105t-120 39zM969 279q-118 0 -211.5 64.5t-141.5 167t-71 226.5t-0.5 248.5
t71 227t142 167t213.5 64.5q118 0 211 -64.5t141 -167t70.5 -226.5t0 -248.5t-70.5 -227t-141.5 -167t-212.5 -64.5zM1399 1423v11h362v-11h-4q-51 0 -74.5 -29.5t-11.5 -78.5l256 -1059l240 1059q11 50 -13 79t-75 29h-41v11h317v-11h-39q-51 0 -89 -29.5t-48 -78.5
l-297 -1325h-16l-318 1325q-12 49 -50 78.5t-89 29.5h-10zM2476 12q51 0 82 31t31 82v1186q0 51 -31 81.5t-82 30.5v11h659v-338h-10q-2 1 0 18t-2.5 46.5t-9 64t-19.5 70t-34 64t-52.5 46.5t-74.5 18h-221v-651h149q38 0 65.5 17.5t39 42t17 49t5.5 41.5v18h10v-346h-10v18
t-5.5 40t-17 51.5t-39 40.5t-65.5 18h-149v-750h221q57 0 97.5 33.5t58 81.5t27 96t9.5 81v34h10v-338h-659v12zM2705 1518l177 260l32 -27l-200 -242zM3385 1311q0 51 -30.5 81.5t-81.5 30.5v11h352q92 -1 166.5 -29t120.5 -73.5t71 -103.5t25 -119t-25 -119t-71 -103.5
t-120.5 -73.5t-166.5 -29h-14q80 -17 145.5 -61.5t110 -106.5t83.5 -139.5t66 -160.5t57 -169t57.5 -165.5t66.5 -150t84 -122.5t111.5 -82t147.5 -30q46 0 81.5 13.5t55.5 35t34 47t18.5 51.5t6 47.5t0.5 34.5l-1 14q27 1 50.5 -18.5t23.5 -42.5q0 -80 -79.5 -137.5
t-189.5 -57.5q-118 0 -212.5 41t-158.5 110.5t-114.5 159.5t-87 189.5t-70 199t-69.5 189.5t-78 159.5t-103 110.5t-139 41v-659q0 -51 31 -82t82 -31h2v-12h-350v12q51 0 81.5 31t30.5 82v1186zM3611 1423h-103v-628h103q65 0 118 27t85.5 71t50 100.5t17.5 115.5
t-17.5 115.5t-50 100.5t-85.5 71t-118 27zM4674 0h-351v12h4q49 0 79 30t30 79v1194q0 49 -29.5 78.5t-79.5 29.5h-4v11h351v-11h-7q-49 0 -78.5 -29.5t-29.5 -78.5v-1194q0 -50 29.5 -79.5t78.5 -29.5h7v-12zM5229 516q-71 14 -102.5 98t27.5 164t212 80q179 0 399 -160
l168 746h14l318 -1323q12 -49 50 -79t89 -30h10v-12h-362v12h4q51 0 74.5 30t11.5 79l-51 217q-131 197 -318 338l-127 -555q-11 -50 13 -79.5t75 -29.5h41v-12h-317v12h39q51 0 89 30t48 79l127 565q-213 160 -395 160q-106 0 -158.5 -75.5t-39 -154.5t68.5 -92zM5140 -10
q-118 0 -210 80t-140 208.5t-70.5 283.5t0 310t70.5 283.5t141 208.5t212 80q36 0 94.5 -15.5t77.5 -15.5q29 0 41 21h6v-344h-13q0 344 -209 344q-64 0 -117.5 -49t-88 -131.5t-58.5 -190t-29.5 -226t0 -237.5t30 -226t59 -190t88.5 -132.5t119 -49.5q111 0 175 85.5
t64 240.5h14q0 -47 -7 -91.5t-25.5 -90t-46.5 -79.5t-73.5 -55.5t-103.5 -21.5zM5888 1178l-111 -488q182 -141 306 -317z" />
    <glyph glyph-name="R.ss01" unicode="&#xe009;" 
d="M186 1311q0 51 -30.5 81.5t-81.5 30.5v11h352q92 -1 166.5 -29t120.5 -73.5t71 -103.5t25 -119t-25 -119t-71 -103.5t-120.5 -73.5t-166.5 -29h-14q80 -17 145.5 -61.5t110 -106.5t83.5 -139.5t66 -160.5t57 -169t57.5 -165.5t66.5 -150t84 -122.5t111.5 -82t147.5 -30
q46 0 81.5 13.5t55.5 35t34 47t18.5 51.5t6 47.5t0.5 34.5l-1 14q27 1 50.5 -18.5t23.5 -42.5q0 -80 -79.5 -137.5t-189.5 -57.5q-118 0 -212.5 41t-158.5 110.5t-114.5 159.5t-87 189.5t-70 199t-69.5 189.5t-78 159.5t-103 110.5t-139 41v-659q0 -51 31 -82t82 -31h2v-12
h-350v12q51 0 81.5 31t30.5 82v1186zM412 1423h-103v-628h103q65 0 118 27t85.5 71t50 100.5t17.5 115.5t-17.5 115.5t-50 100.5t-85.5 71t-118 27z" />
    <glyph glyph-name="C_A" unicode="&#xe067;" horiz-adv-x="1787" 
d="M582 516q-71 14 -102.5 98t27.5 164t212 80q179 0 399 -160l168 746h14l318 -1323q12 -49 50 -79t89 -30h10v-12h-362v12h4q51 0 74.5 30t11.5 79l-51 217q-131 197 -318 338l-127 -555q-11 -50 13 -79.5t75 -29.5h41v-12h-317v12h39q51 0 89 30t48 79l127 565
q-213 160 -395 160q-106 0 -158.5 -75.5t-39 -154.5t68.5 -92zM494 -10q-118 0 -210.5 80t-140 208.5t-70.5 283.5t-0.5 310t70.5 283.5t141 208.5t212 80q36 0 94.5 -15.5t77.5 -15.5q29 0 41 21h6v-344h-13q0 344 -208 344q-64 0 -117.5 -49t-88 -131.5t-58.5 -190
t-29.5 -226t-0.5 -237.5t29.5 -226t59 -190t88.5 -132.5t119 -49.5q111 0 175 85.5t64 240.5h15q0 -47 -7 -91.5t-25.5 -90t-46.5 -79.5t-73.5 -55.5t-103.5 -21.5zM1241 1178l-111 -488q182 -141 306 -317z" />
    <glyph glyph-name="L_O" unicode="&#xe06c;" horiz-adv-x="1495" 
d="M74 1423v11h350v-11h-2q-51 0 -82 -30.5t-31 -81.5v-1295q116 90 279 90q77 0 243 -28.5t256 -28.5q192 0 261 164q55 -96 -7 -170t-211 -74q-72 0 -154.5 18t-144.5 39.5t-138 39.5t-136 18q-130 0 -248 -84h-235v12q51 0 81.5 31t30.5 82v1186q0 51 -30.5 81.5
t-81.5 30.5zM969 1434q-64 0 -118 -39t-89 -105t-60 -152t-30 -181t0 -189.5t29.5 -180.5t59.5 -152t90 -105t120 -39q64 0 118 39t89 105t60 152t30 181t0 189.5t-29.5 180.5t-59.5 152t-90 105t-120 39zM969 279q-118 0 -211.5 64.5t-141.5 167t-71 226.5t-0.5 248.5
t71 227t142 167t213.5 64.5q118 0 211 -64.5t141 -167t70.5 -226.5t0 -248.5t-70.5 -227t-141.5 -167t-212.5 -64.5z" />
    </font>
</defs>
</svg>
