<svg xmlns="http://www.w3.org/2000/svg" preserveAspectRatio="xMidYMid" width="49" height="43"><path d="M0 12.549c.179-.46.517-.607 1.01-.606 12.226.009 24.452.007 36.678.007h.3c.127-.542.255-1.076.377-1.611.377-1.649.75-3.3 1.127-4.95.345-1.517.694-3.033 1.039-4.55.151-.663.361-.838 1.06-.839 1.911-.002 3.821-.002 5.732.001.559.001 1.118.016 1.677.025v1.525l-5.744-.009h-1.285c-.192.85-.378 1.687-.57 2.522-.581 2.521-1.167 5.042-1.744 7.564-.669 2.921-1.329 5.843-1.998 8.764-.614 2.68-1.235 5.359-1.85 8.04a285.856 285.856 0 00-.773 3.445c-.043.2-.025.415-.026.623-.002.698.007 1.397-.005 2.096-.004.197.057.295.237.394 1.499.823 2.283 2.1 2.295 3.787.017 2.317-1.94 4.213-4.285 4.214-2.37.001-4.278-1.828-4.33-4.171a4.004 4.004 0 01.884-2.629l.082-.108c.005-.007.004-.017.009-.046H13.626c.09.126.175.239.254.356a4.2 4.2 0 01-1.42 6.035c-2.654 1.509-5.996-.116-6.413-3.117-.319-2.306 1.263-4.411 3.596-4.769a5.81 5.81 0 01.875-.056c7.533-.003 15.066-.003 22.599-.003h.317v-1.821h-1.275c-3.456-.012-6.912-.022-10.368-.037-3.94-.016-7.88-.035-11.819-.053-.869-.005-1.737-.013-2.605-.02-.487-.003-.718-.163-.875-.625a7329.23 7329.23 0 01-2.686-7.894L.066 13.021c-.017-.05-.044-.097-.066-.145v-.327zm7.815 18.452c.084.005.148.011.211.011 2.547.014 5.094.03 7.64.041 5.875.026 11.751.049 17.626.08.231.002.325-.056.378-.293.503-2.251 1.019-4.501 1.535-6.75.735-3.202 1.473-6.403 2.209-9.605.075-.328.147-.658.221-.99H1.865l5.95 17.506zm22.665 7.737c.024 1.568 1.254 2.742 2.849 2.722 1.461-.019 2.685-1.298 2.655-2.777-.03-1.524-1.295-2.72-2.878-2.66a2.706 2.706 0 00-2.626 2.715zm-17.426.019c.009-1.49-1.207-2.73-2.687-2.741-1.537-.012-2.806 1.195-2.817 2.677-.01 1.487 1.215 2.756 2.672 2.767 1.588.013 2.823-1.166 2.832-2.703z" fill="#0f7d40" fill-rule="evenodd"/></svg>