<svg xmlns="http://www.w3.org/2000/svg" preserveAspectRatio="xMidYMid" width="244.781" height="53.469"><path d="M244.737 13.706c-.084.271-.293.492-.454.63a883.52 883.52 0 01-4.2 3.473 17.945 17.945 0 00-1.41-1.721l4.019-3.592c.255-.227.57-.353.887-.353.202 0 .402.052.578.149.512.282.751.864.58 1.414zm-4.723-3.711c-.153.168-1.621 1.71-3.749 3.943a18.005 18.005 0 00-1.893-1.217l3.842-4.365a1.34 1.34 0 01.837-.455c.201-.024.405.003.592.079.542.219.849.768.746 1.336-.051.278-.232.523-.375.679zM238 16.548c.024.025.046.053.07.078.499.537.962 1.103 1.389 1.698a18.055 18.055 0 012.033 3.692 17.157 17.157 0 011.274 6.557c0 2.296-.425 4.481-1.274 6.557-.85 2.076-2.014 3.898-3.492 5.468a16.397 16.397 0 01-5.251 3.721c-2.023.912-4.224 1.367-6.602 1.367-2.38 0-4.589-.455-6.628-1.367a16.888 16.888 0 01-5.327-3.721 17.62 17.62 0 01-3.569-5.443c-.867-2.059-1.3-4.253-1.3-6.582 0-2.329.433-4.532 1.3-6.607a17.541 17.541 0 013.569-5.469 16.888 16.888 0 015.327-3.721c2.039-.911 4.248-1.367 6.628-1.367 2.378 0 4.579.464 6.602 1.392.368.169.724.353 1.074.543.658.358 1.285.751 1.88 1.184a16.433 16.433 0 012.297 2.02zm-4.412.197a12884.112 12884.112 0 01-16.717 17.501c-.63.636-.942.627-1.177.433-.287-.236-.107-.64.384-1.19.72-.804 9.405-10.669 15.681-17.799l.552-.628c-.142-.071-.283-.143-.429-.21-1.751-.811-3.663-1.215-5.735-1.215-2.074 0-4.002.397-5.787 1.19a14.5 14.5 0 00-4.639 3.24 15.252 15.252 0 00-3.084 4.759c-.748 1.806-1.122 3.721-1.122 5.747 0 2.025.374 3.941 1.122 5.746a14.911 14.911 0 003.084 4.734 14.67 14.67 0 004.639 3.215c1.785.794 3.713 1.19 5.787 1.19 2.072 0 3.984-.396 5.735-1.19a14.36 14.36 0 004.563-3.24 15.122 15.122 0 003.033-4.759 15.035 15.035 0 001.096-5.696c0-1.991-.365-3.89-1.096-5.696a15.53 15.53 0 00-1.717-3.154l-.627.517a13545.205 13545.205 0 01-18.746 15.428c-.702.556-1.01.51-1.22.29-.257-.269-.03-.649.524-1.136.827-.728 11.015-9.829 18.129-16.186l.603-.539a14.545 14.545 0 00-2.27-1.945l-.566.593zm-6.371-8.754v2.025h-1.988V6.219c.339 0 .688-.033 1.045-.101s.688-.185.994-.355c.306-.168.552-.387.74-.658.186-.269.28-.607.28-1.012 0-1.451-.714-2.178-2.141-2.178-.477 0-.952.254-1.428.76s-.815.945-1.019 1.316l-1.785-.557a5.022 5.022 0 011.683-2.455 4.333 4.333 0 012.804-.987c1.155 0 2.072.397 2.753 1.189.679.794 1.019 1.73 1.019 2.81 0 .946-.272 1.772-.815 2.481a4.457 4.457 0 01-2.142 1.519zm-28.599 18.658h-21.769v18.733h-2.192V12.017h2.192v12.404h21.769V12.017h2.192v33.365h-2.192V26.649zm-32.908-1.443c-.833.523-1.818.878-2.956 1.063a22.972 22.972 0 01-3.696.278h-12.389v18.835h-2.192V26.649c-.782-.033-1.682-.194-2.702-.481s-1.835-.65-2.447-1.089l1.58-1.519c.476.372 1.046.6 1.708.684.663.085 1.283.144 1.861.177V12.017h14.377c1.257 0 2.463.109 3.619.328 1.155.22 2.175.6 3.059 1.14.883.54 1.58 1.291 2.09 2.253.51.962.765 2.169.765 3.62 0 1.485-.238 2.7-.714 3.645-.476.946-1.13 1.68-1.963 2.203zm-.127-8.607c-.408-.692-.943-1.207-1.606-1.545-.663-.337-1.445-.557-2.345-.658a24.925 24.925 0 00-2.778-.152h-12.185v10.177h12.338c.985 0 1.911-.042 2.778-.127.867-.084 1.631-.295 2.294-.633a3.63 3.63 0 001.555-1.518c.374-.675.561-1.604.561-2.785 0-1.147-.204-2.067-.612-2.759zM95.384 45.382h-2.192V14.244H81.16v-2.227h26.153v2.227H95.384v31.138zM51.337 12.017h22.992v2.227h-20.8v10.177h17.945v2.228H53.529v16.506h21.208v2.227h-23.4V12.017zm16.008-3.696a3.326 3.326 0 01-1.172-.355 9.434 9.434 0 01-1.224-.734c-.408-.286-.799-.59-1.173-.912-.374-.32-.68-.598-.917-.835-.544.54-1.241 1.106-2.09 1.696-.85.591-1.649.954-2.397 1.089a8.806 8.806 0 01-.153-.886 9.036 9.036 0 00-.152-.886 32.46 32.46 0 002.039-1.216 13.385 13.385 0 001.886-1.468h1.733c.578.54 1.199 1.03 1.861 1.468.663.44 1.334.844 2.014 1.216-.069.303-.12.607-.153.911-.034.304-.069.607-.102.912zm-28.09 3.696h2.192v33.365h-2.192V12.017zM0 12.017h2.396L16.11 40.37l13.714-28.353h2.345L16.11 45.939 0 12.017zM62.757 49.23c.679 0 1.206.194 1.58.582.374.388.561.92.561 1.596 0 .573-.213 1.063-.637 1.468a2.11 2.11 0 01-1.504.607c-.579 0-1.054-.202-1.428-.607a2.087 2.087 0 01-.56-1.468c0-.608.169-1.123.509-1.544.34-.423.833-.634 1.479-.634z" fill="#0f7d40" fill-rule="evenodd"/></svg>